<?xml version="1.0" standalone="no"?><!DOCTYPE svg PUBLIC "-//W3C//DTD SVG 1.1//EN" "http://www.w3.org/Graphics/SVG/1.1/DTD/svg11.dtd"><svg t="1750648482831" class="icon" viewBox="0 0 1024 1024" version="1.1" xmlns="http://www.w3.org/2000/svg" p-id="3001" xmlns:xlink="http://www.w3.org/1999/xlink" width="200" height="200"><path d="M902.101333 314.496V853.333333a97.536 97.536 0 0 1-97.536 97.536H219.434667A97.536 97.536 0 0 1 121.898667 853.333333V170.666667a97.536 97.536 0 0 1 97.536-97.536h441.301333l241.365333 241.365333z" fill="#4EC47F" p-id="3002"></path><path d="M660.736 265.770667V73.130667l241.365333 241.365333h-192.597333a48.768 48.768 0 0 1-48.768-48.725333z" fill="#3DA869" p-id="3003"></path><path d="M365.824 476.586667l37.717333-37.76 254.805334 254.805333-37.717334 37.76-254.805333-254.805333z m-0.042667 217.301333l96.682667-96.725333 37.802667 37.76-96.725334 96.682666-37.76-37.717333z m157.952-158.122667l96.896-96.853333 37.76 37.717333-96.853333 96.896-37.802667-37.76z" fill="#FFFFFF" p-id="3004"></path></svg>