<?xml version="1.0" standalone="no"?><!DOCTYPE svg PUBLIC "-//W3C//DTD SVG 1.1//EN" "http://www.w3.org/Graphics/SVG/1.1/DTD/svg11.dtd"><svg t="1750648478870" class="icon" viewBox="0 0 1024 1024" version="1.1" xmlns="http://www.w3.org/2000/svg" p-id="2844" xmlns:xlink="http://www.w3.org/1999/xlink" width="200" height="200"><path d="M902.101333 314.496V853.333333a97.536 97.536 0 0 1-97.536 97.536H219.434667A97.536 97.536 0 0 1 121.898667 853.333333V170.666667a97.536 97.536 0 0 1 97.536-97.536h441.301333l241.365333 241.365333z" fill="#46B5F4" p-id="2845"></path><path d="M660.736 265.770667V73.130667l241.365333 241.365333h-192.597333a48.768 48.768 0 0 1-48.768-48.725333z" fill="#2793D1" p-id="2846"></path><path d="M720 394.666667h-416a16.042667 16.042667 0 0 0-16 16v288c0 8.789333 7.210667 16 16 16h416a16.042667 16.042667 0 0 0 16-16v-288a16.042667 16.042667 0 0 0-16-16zM352 506.666667c0-26.410667 21.589333-48 48-48s48 21.589333 48 48S426.410667 554.666667 400 554.666667a48.128 48.128 0 0 1-48-48z m192 144H414.805333l64.426667-112 36.778667 63.573333 64-110.762667 91.989333 159.189334h-128z" fill="#FFFFFF" p-id="2847"></path></svg>