<?xml version="1.0" standalone="no"?><!DOCTYPE svg PUBLIC "-//W3C//DTD SVG 1.1//EN" "http://www.w3.org/Graphics/SVG/1.1/DTD/svg11.dtd"><svg t="1750648491262" class="icon" viewBox="0 0 1706 1024" version="1.1" xmlns="http://www.w3.org/2000/svg" p-id="3316" xmlns:xlink="http://www.w3.org/1999/xlink" width="333.203125" height="200"><path d="M1706.666667 877.714286l-146.285715 146.285714v-243.809524z" fill="#D34D21" p-id="3317"></path><path d="M97.52381 0h1511.619047a97.52381 97.52381 0 0 1 97.52381 97.52381v780.190476H97.52381a97.52381 97.52381 0 0 1-97.52381-97.52381V97.52381a97.52381 97.52381 0 0 1 97.52381-97.52381z" fill="#FF6430" p-id="3318"></path><path d="M248.880762 227.815619h82.505143l184.905143 337.042286h3.510857V227.815619h52.662857V633.904762h-69.632l-198.948572-357.522286H300.373333V633.904762H248.880762zM920.624762 586.50819V633.904762h-240.493714V227.815619h225.865142v46.811429h-173.202285v125.805714h161.499428v44.470857h-161.499428v141.604571zM966.851048 227.815619h55.003428l76.068572 344.649143h3.510857l82.505143-297.252572h63.195428l82.505143 297.252572h3.510857l75.483429-344.649143h53.248L1365.333333 633.904762h-66.706285L1216.121905 333.141333h-3.510857L1128.350476 633.904762h-66.706286z" fill="#FFFFFF" p-id="3319"></path></svg>