<?xml version="1.0" standalone="no"?><!DOCTYPE svg PUBLIC "-//W3C//DTD SVG 1.1//EN" "http://www.w3.org/Graphics/SVG/1.1/DTD/svg11.dtd"><svg t="1750648465630" class="icon" viewBox="0 0 1024 1024" version="1.1" xmlns="http://www.w3.org/2000/svg" p-id="2530" xmlns:xlink="http://www.w3.org/1999/xlink" width="200" height="200"><path d="M902.101333 314.496V853.333333a97.536 97.536 0 0 1-97.536 97.536H219.434667A97.536 97.536 0 0 1 121.898667 853.333333V170.666667a97.536 97.536 0 0 1 97.536-97.536h441.301333l241.365333 241.365333z" fill="#C1CDD6" p-id="2531"></path><path d="M347.733333 384a12.202667 12.202667 0 0 0-12.245333 12.16v126.336c0 6.741333 5.461333 12.202667 12.245333 12.202667h126.976a12.202667 12.202667 0 0 0 12.245334-12.202667V396.416a12.202667 12.202667 0 0 0-12.245334-12.16L347.733333 384z m340.053334 75.477333c0-41.557333-33.877333-75.221333-75.605334-75.221333-41.770667 0-75.605333 33.664-75.605333 75.221333a75.648 75.648 0 0 0 151.210667 0zM342.826667 725.333333h139.733333a12.117333 12.117333 0 1 0 10.538667-18.261333l-69.76-120.490667a12.757333 12.757333 0 0 0-21.333334 0l-69.717333 120.490667a12.117333 12.117333 0 0 0 10.538667 18.261333z m304.085333-142.933333h-67.754667a12.245333 12.245333 0 0 0-10.538666 6.144l-34.261334 59.136a12.117333 12.117333 0 0 0 0 12.16l34.261334 59.178667c2.176 3.712 6.186667 6.058667 10.538666 6.058666h67.754667a12.245333 12.245333 0 0 0 10.538667-6.058666l34.261333-59.178667a12.117333 12.117333 0 0 0 0-12.16l-34.261333-59.136a12.245333 12.245333 0 0 0-10.538667-6.101333z" fill="#FFFFFF" p-id="2532"></path><path d="M660.736 265.770667V73.130667l241.365333 241.365333h-192.597333a48.768 48.768 0 0 1-48.768-48.725333z" fill="#91A7B9" p-id="2533"></path></svg>