<?xml version="1.0" standalone="no"?><!DOCTYPE svg PUBLIC "-//W3C//DTD SVG 1.1//EN" "http://www.w3.org/Graphics/SVG/1.1/DTD/svg11.dtd"><svg t="1750648472374" class="icon" viewBox="0 0 1024 1024" version="1.1" xmlns="http://www.w3.org/2000/svg" p-id="2687" xmlns:xlink="http://www.w3.org/1999/xlink" width="200" height="200"><path d="M902.101333 314.496V853.333333a97.536 97.536 0 0 1-97.536 97.536H219.434667A97.536 97.536 0 0 1 121.898667 853.333333V170.666667a97.536 97.536 0 0 1 97.536-97.536h441.301333l241.365333 241.365333z" fill="#ED5050" p-id="2688"></path><path d="M660.736 265.770667V73.130667l241.365333 241.365333h-192.597333a48.768 48.768 0 0 1-48.768-48.725333z" fill="#D43030" p-id="2689"></path><path d="M633.898667 577.834667a309.162667 309.162667 0 0 0-59.477334 6.826666 288.682667 288.682667 0 0 1-59.008-76.074666c16.341333-52.906667 17.066667-89.002667 4.864-106.069334a31.445333 31.445333 0 0 0-24.362666-12.416 30.72 30.72 0 0 0-29.525334 15.36c-17.066667 28.288 7.594667 84.352 19.029334 107.008a673.664 673.664 0 0 1-50.218667 117.546667C344.021333 669.013333 341.333333 692.650667 341.333333 701.184a27.776 27.776 0 0 0 16.085334 24.405333c4.266667 2.602667 9.173333 3.882667 14.165333 3.626667 24.362667 0 51.2-26.538667 80.682667-78.506667 36.394667-15.36 74.069333-27.434667 112.64-36.053333 19.797333 16.725333 44.373333 26.709333 70.229333 28.501333 16.085333 0 48.768 0 48.768-32.426666 0.213333-10.965333-6.357333-31.914667-50.005333-32.896zM373.333333 702.165333H370.346667c8.277333-12.458667 20.224-22.058667 34.133333-27.562666-6.954667 12.501333-17.962667 22.186667-31.189333 27.562666z m116.522667-282.581333c1.28-0.426667 2.645333-0.426667 3.882667 0h2.944c4.992 15.872 4.992 32.896 0 48.768a76.8 76.8 0 0 1-6.826667-48.768z m48.768 183.850667c-21.888 5.12-43.477333 11.434667-64.597333 19.029333v-1.962667h-1.962667c10.496-20.736 19.968-42.666667 28.501333-64.384v-1.92c11.008 16.64 23.68 32.213333 37.802667 46.293334h-2.688l2.944 2.944z m97.536 12.416a82.645333 82.645333 0 0 1-28.8-6.314667c8.021333-1.578667 16.213333-2.261333 24.405333-1.962667 18.773333 0 22.656 4.650667 22.656 7.552a40.96 40.96 0 0 1-18.517333 0.725334h0.256z" fill="#FFFFFF" p-id="2690"></path></svg>