<?xml version="1.0" standalone="no"?><!DOCTYPE svg PUBLIC "-//W3C//DTD SVG 1.1//EN" "http://www.w3.org/Graphics/SVG/1.1/DTD/svg11.dtd"><svg t="1750648486377" class="icon" viewBox="0 0 1024 1024" version="1.1" xmlns="http://www.w3.org/2000/svg" p-id="3158" xmlns:xlink="http://www.w3.org/1999/xlink" width="200" height="200"><path d="M902.101333 314.496V853.333333a97.536 97.536 0 0 1-97.536 97.536H219.434667A97.536 97.536 0 0 1 121.898667 853.333333V170.666667a97.536 97.536 0 0 1 97.536-97.536h441.301333l241.365333 241.365333z" fill="#F07661" p-id="3159"></path><path d="M660.736 265.770667V73.130667l241.365333 241.365333h-192.597333a48.768 48.768 0 0 1-48.768-48.725333z" fill="#CF4E4E" p-id="3160"></path><path d="M523.946667 426.666667a127.018667 127.018667 0 0 0-109.482667 63.616v125.354666a127.018667 127.018667 0 0 0 109.482667 63.616 126.293333 126.293333 0 1 0 0-252.586666z m0 202.112a76.074667 76.074667 0 0 1-75.818667-75.818667 75.818667 75.818667 0 1 1 75.818667 75.818667z" fill="#FFFFFF" p-id="3161"></path><path d="M414.464 426.666667h50.474667v353.536H414.464z" fill="#FFFFFF" p-id="3162"></path></svg>