<?xml version="1.0" standalone="no"?><!DOCTYPE svg PUBLIC "-//W3C//DTD SVG 1.1//EN" "http://www.w3.org/Graphics/SVG/1.1/DTD/svg11.dtd"><svg t="1757038988052" class="icon" viewBox="0 0 1024 1024" version="1.1" xmlns="http://www.w3.org/2000/svg" p-id="4145" xmlns:xlink="http://www.w3.org/1999/xlink" width="200" height="200"><path d="M902.0928 314.5216v538.8032a97.536 97.536 0 0 1-97.536 97.536H219.4432a97.536 97.536 0 0 1-97.536-97.536V170.6752a97.536 97.536 0 0 1 97.536-97.536H660.736l241.3568 241.3824z" fill="#46B5F4" p-id="4146"></path><path d="M660.736 265.7536V73.1392l241.3568 241.3824h-192.6144a48.768 48.768 0 0 1-48.7424-48.768z" fill="#2793D1" p-id="4147"></path><path d="M307.2 384h307.2a25.6 25.6 0 0 1 25.6 25.6v14.08a25.6 25.6 0 0 1-25.6 25.6H307.2a25.6 25.6 0 0 1-25.6-25.6V409.6a25.6 25.6 0 0 1 25.6-25.6z m0 128h179.2a25.6 25.6 0 0 1 25.6 25.6v14.08a25.6 25.6 0 0 1-25.6 25.6h-179.2a25.6 25.6 0 0 1-25.6-25.6V537.6a25.6 25.6 0 0 1 25.6-25.6z m0 128h102.4a25.6 25.6 0 0 1 25.6 25.6v14.08a25.6 25.6 0 0 1-25.6 25.6h-102.4a25.6 25.6 0 0 1-25.6-25.6V665.6a25.6 25.6 0 0 1 25.6-25.6z" fill="#FFFFFF" p-id="4148"></path></svg>