<?xml version="1.0" standalone="no"?><!DOCTYPE svg PUBLIC "-//W3C//DTD SVG 1.1//EN" "http://www.w3.org/Graphics/SVG/1.1/DTD/svg11.dtd"><svg t="1750648435857" class="icon" viewBox="0 0 1024 1024" version="1.1" xmlns="http://www.w3.org/2000/svg" p-id="2370" xmlns:xlink="http://www.w3.org/1999/xlink" width="200" height="200"><path d="M902.101333 314.496V853.333333a97.536 97.536 0 0 1-97.536 97.536H219.434667A97.536 97.536 0 0 1 121.898667 853.333333V170.666667a97.536 97.536 0 0 1 97.536-97.536h441.301333l241.365333 241.365333z" fill="#4997D9" p-id="2371"></path><path d="M571.264 720.938667h50.944l84.821333-271.616h-50.944z" fill="#FFFFFF" p-id="2372"></path><path d="M660.736 265.770667V73.130667l241.365333 241.365333h-192.597333a48.768 48.768 0 0 1-48.768-48.725333z" fill="#4B80CB" p-id="2373"></path><path d="M622.208 720.938667h-50.944l-84.608-237.482667h50.688l84.864 237.482667z" fill="#FFFFFF" p-id="2374"></path><path d="M401.792 720.938667h50.944l84.608-237.482667h-50.688z" fill="#FFFFFF" p-id="2375"></path><path d="M452.736 720.938667H401.792L317.013333 449.322667h50.944z" fill="#FFFFFF" p-id="2376"></path></svg>