<?xml version="1.0" standalone="no"?><!DOCTYPE svg PUBLIC "-//W3C//DTD SVG 1.1//EN" "http://www.w3.org/Graphics/SVG/1.1/DTD/svg11.dtd"><svg t="1751362268554" class="icon" viewBox="0 0 1024 1024" version="1.1" xmlns="http://www.w3.org/2000/svg" p-id="2718" xmlns:xlink="http://www.w3.org/1999/xlink" width="200" height="200"><path d="M661.943 73.143H146.286c-20.115 0-36.572 16.457-36.572 36.571v804.572c0 20.114 16.457 36.571 36.572 36.571h731.428c20.115 0 36.572-16.457 36.572-36.571v-588.8L661.943 73.143z" fill="#FCD165" p-id="2719"></path><path d="M661.943 288.914c0 20.115 16.457 36.572 36.571 36.572h215.772L661.943 73.143v215.771z" fill="#FFE3A6" p-id="2720"></path><path d="M334.629 73.143h73.142v73.143H334.63z m73.142 73.143h73.143v73.143h-73.143z m-73.142 73.143h73.142v73.142H334.63z m73.142 73.142h73.143v73.143h-73.143z m-73.142 73.143h73.142v73.143H334.63z m109.714 329.143H371.2c-20.114 0-36.571-16.457-36.571-36.571V548.57h146.285v109.715c0 20.114-14.628 36.571-36.571 36.571z m-36.572-256h73.143V512h-73.143z" fill="#FFFFFF" p-id="2721"></path></svg>