<?xml version="1.0" encoding="UTF-8"?>
<svg width="45px" height="41px" viewBox="0 0 45 41" version="1.1" xmlns="http://www.w3.org/2000/svg" xmlns:xlink="http://www.w3.org/1999/xlink">
    <title>logoi</title>
    <g id="页面-1" stroke="none" stroke-width="1" fill="none" fill-rule="evenodd">
        <g id="需求看板备份-11" transform="translate(-18, -22)" fill-rule="nonzero">
            <g id="logoi" transform="translate(18, 22)">
                <path d="M24.8991567,25.1458958 L24.6136592,25.2390907 C20.422771,26.6150866 16.5748389,27.3588188 13.1758023,27.4520137 C10.0127323,27.5030483 6.86158382,27.0454479 3.83877632,26.0961187 C3.67664312,26.0460645 3.50392614,26.1311672 3.44195271,26.2916454 L3.44195271,26.2916454 C3.39705431,26.4530684 3.46591268,26.6248694 3.60894183,26.7082816 C7.03850331,29.2373365 7.86806216,30.9422557 8.60425075,32.818946 C9.42303611,35.1067904 9.16447231,36.9962722 8.60425075,40.2032746 L8.46778653,40.5395073 L8.82690291,40.6199108 C9.91595663,40.8699521 11.0287167,40.9974138 12.1451383,41 C16.3468,41 19.7206985,39.1361012 21.6778828,37.0931218 C22.9146323,35.9023156 23.9298709,34.4939672 24.674709,32.9358965 C25.3120343,31.6062256 25.6278523,30.1407905 25.5958425,28.6617206 C25.5552247,27.5629843 25.3561832,26.4762849 25.0050961,25.4364447 L24.8991567,25.1458958 Z" id="路径" fill="#008CAB"></path>
                <path d="M7.94527219,25.697756 L8.02966454,25.4985747 C8.85922339,23.5341715 10.9331205,21.0416636 13.5762171,18.8342227 L13.5762171,18.8342227 C15.2585343,17.4174234 17.0537195,16.1454666 18.9432115,15.0315036 C19.0916557,14.9471658 19.1498879,14.759768 19.0760845,14.6039032 L19.0760845,14.6039032 C18.9949291,14.4565561 18.8221254,14.3889762 18.6648963,14.4430963 C15.2532906,15.2909875 13.9784275,15.376873 11.9117127,15.2836781 C9.6528706,15.1667276 7.94168102,14.618522 6.09223164,13.2607997 L5.90010437,13.0250713 L5.6684743,13.2187706 C3.17441101,15.2891602 0.782695881,17.5075652 0.168606862,19.6875959 C-0.122821287,20.587089 -0.0337135167,21.5693929 0.414601586,22.399386 C0.850927994,23.2052482 1.65893986,23.9215701 2.74885809,24.471603 C4.10093128,25.1495505 5.82289435,25.568014 7.73159794,25.6849646 L7.94527219,25.697756 Z" id="路径" fill="#6CBB5A"></path>
                <path d="M20.3491521,14.384621 L20.6364452,14.2895987 C24.4305099,13.0561363 27.91753,12.3964623 30.9987485,12.3325049 C33.8591739,12.3030899 36.7065643,12.7285073 39.4379836,13.5933777 C39.5996955,13.6445923 39.7728303,13.560081 39.8348072,13.3996784 L39.8348072,13.3996784 C39.876399,13.2383824 39.8092949,13.0683964 39.6696137,12.9812148 C37.2168487,10.8706235 36.236461,9.30823771 35.5774825,7.61245524 C34.9185039,5.91667277 34.6796915,3.82618231 35.239913,0.792778316 L35.3763773,0.456545585 L35.0172609,0.374314754 C29.7885263,-0.860975064 25.5365883,1.16555808 23.3100667,3.47167606 C22.1788575,4.5504649 21.2508636,5.83053198 20.5718043,7.24881223 C19.9908252,8.46152808 19.7021441,9.79767209 19.7296764,11.1465536 C19.7636176,12.1487922 19.9414682,13.1405843 20.2575775,14.0904174 L20.3491521,14.384621 Z" id="路径" fill="#008CAB"></path>
                <path d="M44.607464,17.4326438 C44.1801155,16.6158176 43.3756948,15.8848768 42.2821854,15.3183978 C40.9283166,14.6203494 39.1973756,14.1763029 37.2743074,14.0392515 L37.0642243,14.0228054 L36.9780364,14.2201594 C36.116157,16.1936993 33.9955748,18.6825525 31.305793,20.8790293 L31.305793,20.8790293 C29.5972433,22.2884178 27.7755216,23.5494489 25.8597931,24.6488561 C25.7110574,24.731865 25.6506888,24.9177711 25.7215333,25.0746291 L25.7215333,25.0746291 C25.7975754,25.2268497 25.972791,25.2980196 26.1309259,25.2409181 C28.8943265,24.4515021 31.2124228,24.1079599 33.2737508,24.3692713 C35.6511013,24.6726117 37.4466832,25.401725 38.7610492,26.5620934 L38.9406074,26.8014765 L39.1758286,26.6187413 C41.7165771,24.5593158 44.1585685,22.3500475 44.8121603,20.1681895 C45.1208374,19.2670663 45.046663,18.2758068 44.607464,17.4326438 L44.607464,17.4326438 Z" id="路径" fill="#6CBB5A"></path>
            </g>
        </g>
    </g>
</svg>