<?xml version="1.0" encoding="UTF-8"?>
<svg width="19px" height="16px" viewBox="0 0 19 16" version="1.1" xmlns="http://www.w3.org/2000/svg" xmlns:xlink="http://www.w3.org/1999/xlink">
    <title>勾选</title>
    <g id="页面-1" stroke="none" stroke-width="1" fill="none" fill-rule="evenodd">
        <g id="勾选" transform="translate(0, 0.5)">
            <path d="M19,0 L19,11.5 C19,13.709139 17.209139,15.5 15,15.5 L0,15.5 L19,0 Z" id="形状结合" fill="#0F56D5"></path>
            <g id="check-outline" transform="translate(9, 7)" fill="#FFFFFF" fill-rule="nonzero">
                <rect id="矩形" opacity="0" x="0" y="0" width="8" height="8"></rect>
                <path d="M7.38493467,2.11402143 L3.53634165,5.92769925 L3.53634165,5.92769925 C3.43905572,6.02410025 3.28132405,6.02410025 3.1840381,5.92769925 C3.17563668,5.91937427 3.1679608,5.91060258 3.16101045,5.90146137 C3.15188508,5.89468433 3.14307782,5.88711157 3.134717,5.87882678 L0.615063983,3.38200832 C0.588910793,3.35609215 0.588718653,3.31388158 0.61463483,3.2877284 C0.62715425,3.27509448 0.644203092,3.26798712 0.66198937,3.26798712 L1.17706487,3.26798712 C1.19464036,3.26798712 1.21150483,3.27492747 1.22398927,3.28729827 L3.36007383,5.40393595 L3.36007383,5.40393595 L6.776011,2.01930967 C6.78849532,2.00693978 6.80535915,2 6.8229339,2 L7.33800952,2 C7.3748285,2 7.40467618,2.02984768 7.40467618,2.06666667 C7.40467618,2.08445305 7.39756873,2.101502 7.38493467,2.11402143 Z" id="路径"></path>
                <path d="M2.97769941,6.0741667 L2.9587468,6.05640631 L0.439093811,3.55958787 C0.314866119,3.43648604 0.313953458,3.23598583 0.437055296,3.11175821 C0.496522538,3.05174711 0.57750454,3.01798712 0.66198937,3.01798712 L1.17706487,3.01798712 C1.26054846,3.01798712 1.34065473,3.05095384 1.39995576,3.10971506 L3.3593227,5.052 L6.60005008,1.84172094 C6.64452547,1.79765323 6.70070237,1.76809405 6.76122927,1.7560687 L6.8229339,1.75 L7.33800952,1.75 C7.51289969,1.75 7.65467618,1.8917765 7.65467618,2.06666667 C7.65467618,2.15115205 7.62091575,2.23213457 7.5609039,2.29160192 L3.71230884,6.10528176 C3.5175799,6.29823941 3.20279989,6.29823941 3.00807104,6.10528189 C3.0019745,6.09895102 2.9974021,6.09420287 2.99441452,6.09098875 C2.98644177,6.08192875 2.98250041,6.07853911 2.97769941,6.0741667 Z" id="路径"></path>
            </g>
        </g>
    </g>
</svg>