<?xml version="1.0" encoding="UTF-8"?>
<svg width="22px" height="23px" viewBox="0 0 22 23" version="1.1" xmlns="http://www.w3.org/2000/svg" xmlns:xlink="http://www.w3.org/1999/xlink">
    <title>传阅我的</title>
    <defs>
        <linearGradient x1="50%" y1="0%" x2="50%" y2="100%" id="linearGradient-1">
            <stop stop-color="#FF7A24" offset="0%"></stop>
            <stop stop-color="#FCB218" offset="100%"></stop>
        </linearGradient>
        <linearGradient x1="50%" y1="0%" x2="50%" y2="100%" id="linearGradient-2">
            <stop stop-color="#FF7A24" offset="0%"></stop>
            <stop stop-color="#FCB218" offset="100%"></stop>
        </linearGradient>
    </defs>
    <g id="页面-1" stroke="none" stroke-width="1" fill="none" fill-rule="evenodd">
        <g id="传阅我的">
            <path d="M16,0 C17.1045695,0 18,0.8954305 18,2 L18.0010919,10.2564447 C17.531615,10.0903714 17.0263612,10 16.5,10 C14.0147186,10 12,12.0147186 12,14.5 C12,15.35975 12.2411058,16.1631868 12.6593573,16.8470515 C11.0496842,17.7228471 9.82191231,19.2118842 9.28974065,21.0004638 L2,21 C0.8954305,21 0,20.1045695 0,19 L0,2 C0,0.8954305 0.8954305,2.22044605e-16 2,0 L16,0 Z M7.33111358,12.7826128 L5.16888642,12.7826128 C4.52332828,12.7826128 4,13.305941 4,13.9514992 L4,14.0050327 C4,14.6505909 4.52332828,15.1739191 5.16888642,15.1739191 L7.33111358,15.1739191 C7.97667172,15.1739191 8.5,14.6505909 8.5,14.0050327 L8.5,13.9514992 C8.5,13.305941 7.97667172,12.7826128 7.33111358,12.7826128 Z M12.8311135,8.39130638 L5.16888646,8.39130638 C4.52332829,8.39130638 4,8.91463467 4,9.56019284 L4,9.6137263 C4,10.2592845 4.52332829,10.7826128 5.16888646,10.7826128 L12.8311135,10.7826128 C13.4766717,10.7826128 14,10.2592845 14,9.6137263 L14,9.56019284 C14,8.91463467 13.4766717,8.39130638 12.8311135,8.39130638 Z M12.8311135,4 L5.16888646,4 C4.52332829,4 4,4.52332829 4,5.16888646 L4,5.22241992 C4,5.86797808 4.52332829,6.39130638 5.16888646,6.39130638 L12.8311135,6.39130638 C13.4766717,6.39130638 14,5.86797808 14,5.22241992 L14,5.16888646 C14,4.52332829 13.4766717,4 12.8311135,4 Z" id="形状结合" fill="url(#linearGradient-1)"></path>
            <path d="M17,18 C18.6568542,18 20,16.6568542 20,15 C20,13.3431458 18.6568542,12 17,12 C15.3431458,12 14,13.3431458 14,15 C14,16.6568542 15.3431458,18 17,18 Z M16,19 L18,19 C20.209139,19 22,20.790861 22,23 L22,23 L22,23 L12,23 C12,20.790861 13.790861,19 16,19 Z" id="形状结合" fill="url(#linearGradient-2)" opacity="0.5"></path>
        </g>
    </g>
</svg>