<?xml version="1.0" encoding="UTF-8"?>
<svg width="38px" height="38px" viewBox="0 0 38 38" version="1.1" xmlns="http://www.w3.org/2000/svg" xmlns:xlink="http://www.w3.org/1999/xlink">
    <title>流程</title>
    <defs>
        <linearGradient x1="50%" y1="0%" x2="50%" y2="100%" id="linearGradient-1">
            <stop stop-color="#FF7A24" offset="0%"></stop>
            <stop stop-color="#FCB218" offset="100%"></stop>
        </linearGradient>
        <linearGradient x1="50%" y1="0%" x2="50%" y2="100%" id="linearGradient-2">
            <stop stop-color="#FF7A24" offset="0%"></stop>
            <stop stop-color="#FCB218" offset="100%"></stop>
        </linearGradient>
    </defs>
    <g id="页面-1" stroke="none" stroke-width="1" fill="none" fill-rule="evenodd">
        <g id="流程">
            <rect id="矩形备份-7" fill="#FFF2EC" x="0" y="0" width="38" height="38" rx="8"></rect>
            <g transform="translate(6, 9)">
                <path d="M22,0.785714286 C22,0.604395604 21.9382022,0.423076923 21.752809,0.241758242 C21.6292135,0.120879121 21.3820225,0 21.1966292,0 L15.0786517,0 C14.8932584,0 14.7078652,0.0604395604 14.5224719,0.241758242 C14.3988764,0.362637363 14.2752809,0.604395604 14.2752809,0.785714286 L14.2752809,2.2967033 L10.8146067,2.2967033 C10.6292135,2.2967033 10.4438202,2.35714286 10.258427,2.53846154 C10.1348315,2.65934066 10.011236,2.9010989 10.011236,3.08241758 L10.011236,18.1923077 C10.011236,18.3736264 10.0730337,18.5549451 10.258427,18.7362637 C10.3820225,18.8571429 10.6292135,18.978022 10.8146067,18.978022 L14.2752809,18.978022 L14.2752809,21.2142857 C14.2752809,21.3956044 14.3370787,21.5769231 14.5224719,21.7582418 C14.6460674,21.8791209 14.8932584,22 15.0786517,22 L21.1966292,22 C21.3820225,22 21.5674157,21.9395604 21.752809,21.7582418 C21.8764045,21.6373626 22,21.3956044 22,21.2142857 L22,16.3186813 C22,16.1373626 21.9382022,15.956044 21.752809,15.7747253 C21.6292135,15.6538462 21.3820225,15.532967 21.1966292,15.532967 L15.0786517,15.532967 C14.8932584,15.532967 14.7078652,15.5934066 14.5224719,15.7747253 C14.3988764,15.8956044 14.2752809,16.1373626 14.2752809,16.3186813 L14.2752809,16.6813187 L12.7303371,16.6813187 C12.5449438,16.6813187 12.3595506,16.6208791 12.1741573,16.4395604 C12.0505618,16.3186813 11.9269663,16.0769231 11.9269663,15.8956044 L11.9269663,4.8956044 C11.9269663,4.71428571 11.988764,4.53296703 12.1741573,4.35164835 C12.2977528,4.23076923 12.5449438,4.10989011 12.7303371,4.10989011 L14.2752809,4.10989011 L14.2752809,5.62087912 C14.2752809,5.8021978 14.3370787,5.98351648 14.5224719,6.16483516 C14.6460674,6.28571429 14.8932584,6.40659341 15.0786517,6.40659341 L21.1966292,6.40659341 C21.3820225,6.40659341 21.5674157,6.34615385 21.752809,6.16483516 C21.8764045,6.04395604 22,5.8021978 22,5.62087912 L22,0.785714286 L22,0.785714286 Z" id="形状" fill="url(#linearGradient-1)"></path>
                <path d="M0.247191011,10.032967 C0.123595506,10.1538462 0,10.3351648 0,10.5769231 C0,10.7582418 0.0617977528,10.9395604 0.247191011,11.1208791 L4.07865169,14.989011 C4.20224719,15.0494505 4.38764045,15.1703297 4.63483146,15.1703297 C4.82022472,15.1703297 5.06741573,15.1098901 5.19101124,14.9285714 L9.20786517,11.0604396 C9.33146067,10.9395604 9.45505618,10.7582418 9.45505618,10.5164835 C9.45505618,10.2747253 9.39325843,10.0934066 9.20786517,9.97252747 L5.19101124,6.16483516 C5.06741573,6.04395604 4.88202247,5.92307692 4.63483146,5.92307692 C4.4494382,5.92307692 4.26404494,5.98351648 4.07865169,6.16483516 L0.247191011,10.032967 Z" id="路径" fill="url(#linearGradient-2)" opacity="0.5"></path>
            </g>
        </g>
    </g>
</svg>