<?xml version="1.0" standalone="no"?><!DOCTYPE svg PUBLIC "-//W3C//DTD SVG 1.1//EN" "http://www.w3.org/Graphics/SVG/1.1/DTD/svg11.dtd"><svg t="1760089368818" class="icon" viewBox="0 0 1024 1024" version="1.1" xmlns="http://www.w3.org/2000/svg" p-id="4158" xmlns:xlink="http://www.w3.org/1999/xlink" width="200" height="200"><path d="M393.216 701.696a32 32 0 0 1-22.592-54.72l115.264-115.264a36.096 36.096 0 0 1 50.88 0l115.328 115.264a32 32 0 0 1-45.312 45.312L511.36 596.8l-95.488 95.488a32 32 0 0 1-22.592 9.408z" fill="#0F56D5" p-id="4159"></path><path d="M511.36 921.088a32 32 0 0 1-32-32V613.12a32 32 0 1 1 64 0v275.968a32 32 0 0 1-32 32z" fill="#0F56D5" p-id="4160"></path><path d="M732.672 784.896a32 32 0 1 1 0-64 164.352 164.352 0 1 0 20.288-327.424l-22.656-2.752-4.672-22.4a217.6 217.6 0 0 0-212.48-172.416A217.792 217.792 0 0 0 300.8 368.32l-4.672 22.4-22.72 2.752a164.352 164.352 0 0 0 20.288 327.424 32 32 0 1 1 0 64 227.2 227.2 0 0 1-161.472-66.88A227.008 227.008 0 0 1 65.28 556.48a228.672 228.672 0 0 1 178.24-222.72 281.344 281.344 0 0 1 269.632-201.984 281.152 281.152 0 0 1 269.568 201.92 228.48 228.48 0 0 1 111.36 384.32 226.752 226.752 0 0 1-161.408 66.88z" fill="#0F56D5" p-id="4161"></path></svg>